<svg width="34" height="34" viewBox="0 0 34 34" fill="none" xmlns="http://www.w3.org/2000/svg">
<path d="M8.5 31.875C8.34381 31.875 8.18656 31.8399 8.03888 31.7698C7.67231 31.5924 7.4375 31.2216 7.4375 30.8125V25.5H4.25C2.49262 25.5 1.0625 24.0699 1.0625 22.3125V5.3125C1.0625 3.55512 2.49262 2.125 4.25 2.125H29.75C31.5074 2.125 32.9375 3.55512 32.9375 5.3125V22.3125C32.9375 24.0699 31.5074 25.5 29.75 25.5H16.8417L9.16406 31.6423C8.97175 31.7964 8.73694 31.875 8.5 31.875ZM4.25 4.25C3.6635 4.25 3.1875 4.72706 3.1875 5.3125V22.3125C3.1875 22.8979 3.6635 23.375 4.25 23.375H8.5C9.08756 23.375 9.5625 23.8499 9.5625 24.4375V28.6025L15.8047 23.6077C15.9938 23.4568 16.2265 23.375 16.4688 23.375H29.75C30.3365 23.375 30.8125 22.8979 30.8125 22.3125V5.3125C30.8125 4.72706 30.3365 4.25 29.75 4.25H4.25Z" fill="white"/>
<path d="M25.5 12.75H8.5C7.91244 12.75 7.4375 12.274 7.4375 11.6875C7.4375 11.101 7.91244 10.625 8.5 10.625H25.5C26.0876 10.625 26.5625 11.101 26.5625 11.6875C26.5625 12.274 26.0876 12.75 25.5 12.75Z" fill="white"/>
<path d="M17 17H8.5C7.91244 17 7.4375 16.524 7.4375 15.9375C7.4375 15.351 7.91244 14.875 8.5 14.875H17C17.5876 14.875 18.0625 15.351 18.0625 15.9375C18.0625 16.524 17.5876 17 17 17Z" fill="white"/>
</svg>
