<svg width="22" height="21" viewBox="0 0 22 21" fill="none" xmlns="http://www.w3.org/2000/svg">
<path d="M15.8326 21C11.9759 21 7.85735 19.6473 4.63719 16.5736C1.42239 13.5048 0 9.57616 0 5.8871C0 2.63583 2.75567 0 6.16743 0C6.431 0 6.66798 0.153152 6.76586 0.386736L9.52733 6.97659C9.65955 7.29209 9.4988 7.65011 9.16833 7.77632L6.13486 8.93452C6.34945 12.2657 9.15075 14.9395 12.64 15.1441L13.8534 12.2485C13.9853 11.9335 14.3603 11.7795 14.6912 11.9058L21.5948 14.5417C21.8395 14.6351 22 14.8613 22 15.1129C22 18.3642 19.2443 21 15.8326 21ZM5.73848 1.24811C3.27001 1.45199 1.28906 3.42788 1.28906 5.8871C1.28906 9.59524 2.80182 13.0814 5.54873 15.7034C8.29559 18.3255 11.9478 19.7695 15.8326 19.7695C18.4081 19.7695 20.4787 17.8797 20.6925 15.5224L14.8109 13.2767L13.6695 16.0004C13.5717 16.2339 13.3347 16.3871 13.0711 16.3871C8.52805 16.3871 4.83257 12.8596 4.83257 8.5237C4.83257 8.27215 4.99301 8.04521 5.23772 7.95182L8.0911 6.86232L5.73848 1.24811Z" fill="white"/>
</svg>
