<svg width="23" height="20" viewBox="0 0 23 20" fill="none" xmlns="http://www.w3.org/2000/svg">
<path d="M22.6449 0.532745C22.3639 0.189163 21.9431 0 21.4599 0C21.1972 0 20.9189 0.055275 20.6329 0.164597L1.16379 7.59653C0.13059 7.99083 -0.00856222 8.58253 0.00038705 8.90015C0.00933632 9.21776 0.181829 9.80069 1.23574 10.136C1.24206 10.138 1.24837 10.1399 1.25469 10.1416L5.2931 11.2973L7.47707 17.5425C7.77485 18.3939 8.44324 18.9228 9.22165 18.9228C9.71246 18.9228 10.1952 18.7172 10.6177 18.3283L13.1156 16.0283L16.7387 18.9456C16.739 18.946 16.7396 18.9461 16.7399 18.9465L16.7743 18.9742C16.7775 18.9767 16.7808 18.9793 16.784 18.9818C17.1867 19.2941 17.6263 19.4591 18.0556 19.4592H18.0558C18.8948 19.4592 19.5628 18.8382 19.7574 17.8773L22.9474 2.12589C23.0755 1.49365 22.9681 0.927917 22.6449 0.532745ZM6.64409 11.0778L14.4354 7.09748L9.58401 12.2524C9.50452 12.3368 9.44819 12.4402 9.42047 12.5527L8.48501 16.3419L6.64409 11.0778ZM9.70474 17.3369C9.67245 17.3665 9.63999 17.393 9.60752 17.4174L10.4754 13.9023L12.0542 15.1736L9.70474 17.3369ZM21.6266 1.85829L18.4366 17.6099C18.4059 17.7606 18.3078 18.1114 18.0556 18.1114C17.9311 18.1114 17.7745 18.0435 17.6143 17.9201L13.5089 14.6145C13.5084 14.614 13.5077 14.6135 13.507 14.6131L11.0642 12.646L18.0799 5.19128C18.3045 4.95264 18.3248 4.58712 18.1281 4.32496C17.9312 4.0628 17.5745 3.98032 17.2827 4.12948L5.74372 10.0244L1.65039 8.85329L21.1135 1.42364C21.2779 1.36082 21.3927 1.34766 21.4599 1.34766C21.5011 1.34766 21.5745 1.35257 21.6017 1.38609C21.6375 1.42978 21.6831 1.57876 21.6266 1.85829Z" fill="white"/>
</svg>
