<svg width="48" height="48" viewBox="0 0 48 48" fill="none" xmlns="http://www.w3.org/2000/svg">
<path d="M22.7525 34.8002V23.5202H18V21.6002H22.7525V19.1162C22.7525 17.0522 22.9545 16.2962 23.3584 15.5282C23.7386 14.7962 24.3327 14.1962 25.0574 13.8122C25.8059 13.4042 26.5663 13.2002 28.6099 13.2002C29.1327 13.2002 29.596 13.2482 30 13.3322V15.1202H28.6099C27.0891 15.1202 26.5188 15.2042 25.9604 15.5042C25.5564 15.7202 25.2475 16.0322 25.0337 16.4402C24.7366 17.0042 24.6535 17.5802 24.6535 19.1162V21.6002H29.9287L29.4535 23.5202H24.6535V34.8002H22.7525Z" fill="white"/>
</svg>
