<svg width="26" height="26" viewBox="0 0 26 26" fill="none" xmlns="http://www.w3.org/2000/svg">
<path d="M12.9996 6.33521C9.32455 6.33521 6.33466 9.3251 6.33466 13.0002C6.33466 16.6753 9.32451 19.6652 12.9996 19.6652C16.6747 19.6652 19.6647 16.6752 19.6647 13.0001C19.6647 9.32505 16.6747 6.33521 12.9996 6.33521ZM12.9996 18.2302C10.1158 18.2302 7.76964 15.884 7.76964 13.0001C7.76964 10.1163 10.1158 7.77014 12.9996 7.77014C15.8835 7.77014 18.2297 10.1164 18.2297 13.0002C18.2297 15.884 15.8835 18.2302 12.9996 18.2302Z" fill="white" stroke="white" stroke-width="0.2"/>
<path d="M18.1252 6.59277C18.1252 5.80633 18.7628 5.16895 19.549 5.16895C20.3355 5.16895 20.9728 5.80633 20.9728 6.59277C20.9728 7.37922 20.3355 8.0166 19.549 8.0166C18.7628 8.0166 18.1252 7.37922 18.1252 6.59277Z" fill="white"/>
<path d="M18.4885 0.850098H7.51145C3.83831 0.850098 0.849976 3.83843 0.849976 7.51162V18.4886C0.849976 22.1618 3.83831 25.1501 7.51145 25.1501H18.4885C22.1617 25.1501 25.15 22.1618 25.15 18.4886V7.51162C25.15 3.83843 22.1617 0.850098 18.4885 0.850098ZM23.7149 18.4886C23.7149 21.3705 21.3704 23.7151 18.4885 23.7151H7.51145C4.62957 23.7151 2.285 21.3705 2.285 18.4886V7.51162C2.285 4.6297 4.62957 2.28513 7.51145 2.28513H18.4885C21.3704 2.28513 23.7149 4.6297 23.7149 7.51162V18.4886Z" fill="white" stroke="white" stroke-width="0.2"/>
</svg>
