<svg width="34" height="34" viewBox="0 0 34 34" fill="none" xmlns="http://www.w3.org/2000/svg">
<path d="M12.6401 28.1001C9.21817 28.1001 5.4811 27.2082 3.5 26.0139C5.19594 25.7721 8.06253 25.1825 9.93858 23.7917L10.5239 23.3533L9.71345 22.8091C7.47721 21.3428 0.783493 16.9437 5.07588 5.63618C7.40217 8.23631 9.77349 10.0504 12.1748 11.033C13.7057 11.6679 14.261 11.7435 14.8913 11.819L15.7168 11.9249L15.7318 11.3504C15.7468 10.0352 16.152 8.78053 16.8874 7.70722C17.6228 6.63391 18.6584 5.80247 19.8591 5.31872C20.6395 5.00126 21.465 4.8501 22.3054 4.8501C22.7557 4.8501 23.2059 4.89545 23.6412 4.98615C24.9169 5.25826 26.0725 5.89317 26.988 6.81531L27.1381 6.96648C27.1381 6.96648 28.0987 6.9816 28.2638 6.9816C28.8641 6.9816 29.5545 6.90601 30.5 6.48273C30.1398 8.14561 29.8546 8.96193 29.0442 10.0655L28.9541 10.2015V10.3678C28.9541 24.079 18.7785 27.1931 15.6718 27.8129C14.7713 28.0094 13.7507 28.1001 12.6401 28.1001ZM5.78127 10.0806C4.89577 14.9936 6.53169 18.5764 10.9141 21.3579L13.4505 22.9603C13.4956 22.9905 13.5406 23.0359 13.5706 23.0812C13.6006 23.1266 13.6156 23.1871 13.6156 23.2475C13.6156 23.308 13.6006 23.3685 13.5856 23.4138C13.5556 23.4592 13.5256 23.5196 13.4805 23.5499L10.0436 26.0744L11.4544 26.1651C11.8596 26.1954 12.2649 26.1954 12.6551 26.1954C13.6456 26.1954 14.5461 26.1198 15.3416 25.9535C22.8307 24.4418 27.1231 18.7578 27.1231 10.3678C27.1231 9.43056 25.4872 6.73973 22.3655 6.73973C21.1198 6.73973 19.9491 7.22347 19.0636 8.10026C18.1782 8.97705 17.6829 10.1411 17.6529 11.3958L17.6078 13.6936C17.6078 13.7389 17.5928 13.7994 17.5778 13.8447C17.5628 13.8901 17.5328 13.9203 17.4878 13.9657C17.4427 13.9959 17.3977 14.0261 17.3527 14.0413L17.2026 14.0564L14.9364 13.754C12.0998 13.361 9.30822 12.0307 6.63674 9.79337L5.96137 9.23404L5.78127 10.0806Z" fill="white"/>
</svg>
