<svg width="27" height="27" viewBox="0 0 27 27" fill="none" xmlns="http://www.w3.org/2000/svg">
<path d="M21.8256 6.83224L22.0891 6.65H21.7687H5.23125H4.91094L5.17436 6.83224L13.4431 12.5529L13.5 12.5922L13.5569 12.5529L21.8256 6.83224ZM3.275 20.25V20.35H3.375H23.625H23.725V20.25V7.51781V7.327L23.5681 7.43558L13.924 14.1096L13.9239 14.1097C13.7994 14.1961 13.6515 14.2424 13.5 14.2424C13.3485 14.2424 13.2006 14.1961 13.0761 14.1097L13.076 14.1096L3.43191 7.43558L3.275 7.327V7.51781V20.25ZM3.375 5.1625H23.625C24.046 5.1625 24.4498 5.32975 24.7475 5.62747C25.0452 5.92518 25.2125 6.32897 25.2125 6.75V20.25C25.2125 20.671 25.0452 21.0748 24.7475 21.3725C24.4498 21.6702 24.046 21.8375 23.625 21.8375H3.375C2.95397 21.8375 2.55018 21.6702 2.25247 21.3725C1.95475 21.0748 1.7875 20.671 1.7875 20.25V6.75C1.7875 6.32897 1.95475 5.92518 2.25247 5.62747C2.55018 5.32975 2.95397 5.1625 3.375 5.1625Z" fill="#E80C2A" stroke="white" stroke-width="0.2"/>
</svg>
