<svg width="25" height="25" viewBox="0 0 25 25" fill="none" xmlns="http://www.w3.org/2000/svg">
<g clip-path="url(#clip0_29_1430)">
<path d="M12.5004 0C7.3598 0 3.17773 4.18376 3.17773 9.32635C3.17773 16.9885 11.5724 24.4699 11.9299 24.7847C12.0929 24.9282 12.2966 25.0001 12.5004 25.0001C12.7042 25.0001 12.9079 24.9283 13.0709 24.7847C13.4282 24.47 21.823 16.9886 21.823 9.32635C21.823 4.18376 17.6409 0 12.5004 0ZM12.5004 22.9536C10.6444 21.1551 4.90416 15.1229 4.90416 9.32635C4.90416 5.13578 8.31182 1.72643 12.5004 1.72643C16.6889 1.72643 20.0966 5.13578 20.0966 9.32635C20.0966 15.1228 14.3564 21.1551 12.5004 22.9536Z" fill="#E80C2A"/>
<path d="M12.5015 4.98047C10.1217 4.98047 8.18555 6.92946 8.18555 9.32508C8.18555 11.7208 10.1217 13.6697 12.5015 13.6697C14.8814 13.6697 16.8175 11.7208 16.8175 9.32508C16.8175 6.92946 14.8814 4.98047 12.5015 4.98047ZM12.5015 11.9433C11.0736 11.9433 9.91189 10.7688 9.91189 9.32508C9.91189 7.88148 11.0736 6.7069 12.5015 6.7069C13.9295 6.7069 15.0912 7.8814 15.0912 9.32508C15.0912 10.7688 13.9295 11.9433 12.5015 11.9433Z" fill="#E80C2A"/>
</g>
<defs>
<clipPath id="clip0_29_1430">
<rect width="25" height="25" fill="white"/>
</clipPath>
</defs>
</svg>
