<svg width="54" height="54" viewBox="0 0 54 54" fill="none" xmlns="http://www.w3.org/2000/svg">
<path d="M25.5965 39.1501V26.4601H20.25V24.3001H25.5965V21.5056C25.5965 19.1836 25.8238 18.3331 26.2782 17.4691C26.7059 16.6456 27.3743 15.9706 28.1896 15.5386C29.0317 15.0796 29.8871 14.8501 32.1861 14.8501C32.7743 14.8501 33.2955 14.9041 33.75 14.9986V17.0101H32.1861C30.4752 17.0101 29.8337 17.1046 29.2054 17.4421C28.751 17.6851 28.4035 18.0361 28.1629 18.4951C27.8287 19.1296 27.7351 19.7776 27.7351 21.5056V24.3001H33.6698L33.1352 26.4601H27.7351V39.1501H25.5965Z" fill="white"/>
</svg>
