<svg width="231" height="92" viewBox="0 0 231 92" fill="none" xmlns="http://www.w3.org/2000/svg">
<path d="M0 41.209V54.9449H23.1391V90.143H61.7042V54.9449H83.9863V41.209H0Z" fill="white"/>
<path fill-rule="evenodd" clip-rule="evenodd" d="M93.4131 90.143V41.209H163.687C168.544 41.4951 178.256 42.926 178.256 55.8033C178.234 56.0776 178.214 56.3574 178.195 56.6413C177.99 59.6366 177.753 63.0953 172.869 65.4767C171.919 65.9402 170.865 66.1436 169.81 66.219L159.402 66.9637V69.5392H171.4C173.686 69.5392 178.256 70.7411 178.256 75.5487V90.143H142.262V78.9826C142.262 78.7402 142.27 78.5054 142.277 78.2789C142.348 76.0991 142.393 74.6902 135.406 74.6902H130.264V90.143H93.4131ZM130.264 63.5293V54.0859H138.425C139.809 54.0859 141.407 54.2383 142.223 55.3561C142.726 56.0456 143.119 57.1823 143.119 59.2369C143.119 61.0552 142.811 62.0519 142.391 62.6185C141.672 63.5906 140.286 63.5627 139.019 63.5373C138.82 63.5333 138.625 63.5293 138.435 63.5293H130.264Z" fill="white"/>
<rect x="192.826" y="41.209" width="37.7081" height="49.7925" fill="#F01E28"/>
<ellipse cx="211.681" cy="18.8868" rx="18.8541" ry="18.8868" fill="#F01E28"/>
</svg>
