<svg width="54" height="54" viewBox="0 0 54 54" fill="none" xmlns="http://www.w3.org/2000/svg">
<path d="M26.999 20.3352C23.3239 20.3352 20.334 23.3251 20.334 27.0002C20.334 30.6753 23.3238 33.6652 26.999 33.6652C30.6741 33.6652 33.664 30.6752 33.664 27.0001C33.664 23.3251 30.6741 20.3352 26.999 20.3352ZM26.999 32.2302C24.1151 32.2302 21.769 29.884 21.769 27.0001C21.769 24.1163 24.1151 21.7701 26.999 21.7701C29.8828 21.7701 32.229 24.1164 32.229 27.0002C32.229 29.884 29.8828 32.2302 26.999 32.2302Z" fill="white" stroke="white" stroke-width="0.2"/>
<path d="M32.125 20.5928C32.125 19.8063 32.7626 19.1689 33.5488 19.1689C34.3353 19.1689 34.9727 19.8063 34.9727 20.5928C34.9727 21.3792 34.3353 22.0166 33.5488 22.0166C32.7626 22.0166 32.125 21.3792 32.125 20.5928Z" fill="white"/>
<path d="M32.4881 14.8501H21.5111C17.8379 14.8501 14.8496 17.8384 14.8496 21.5116V32.4886C14.8496 36.1618 17.8379 39.1501 21.5111 39.1501H32.4881C36.1613 39.1501 39.1496 36.1618 39.1496 32.4886V21.5116C39.1496 17.8384 36.1613 14.8501 32.4881 14.8501ZM37.7146 32.4886C37.7146 35.3705 35.3701 37.7151 32.4881 37.7151H21.5111C18.6292 37.7151 16.2846 35.3705 16.2846 32.4886V21.5116C16.2846 18.6297 18.6292 16.2851 21.5111 16.2851H32.4881C35.3701 16.2851 37.7146 18.6297 37.7146 21.5116V32.4886Z" fill="white" stroke="white" stroke-width="0.2"/>
</svg>
