<svg width="22" height="22" viewBox="0 0 22 22" fill="none" xmlns="http://www.w3.org/2000/svg">
<g clip-path="url(#clip0_5_176)">
<path d="M10.9998 0C6.47612 0 2.7959 3.68171 2.7959 8.20719C2.7959 14.9499 10.1832 21.5335 10.4978 21.8105C10.6412 21.9368 10.8205 22.0001 10.9998 22.0001C11.1792 22.0001 11.3584 21.9369 11.5019 21.8105C11.8163 21.5336 19.2037 14.9499 19.2037 8.20719C19.2037 3.68171 15.5235 0 10.9998 0ZM10.9998 20.1992C9.36656 18.6165 4.31516 13.3082 4.31516 8.20719C4.31516 4.51948 7.3139 1.51926 10.9998 1.51926C14.6857 1.51926 17.6845 4.51948 17.6845 8.20719C17.6845 13.3081 12.6331 18.6165 10.9998 20.1992Z" fill="white"/>
<path d="M10.9992 4.38281C8.90495 4.38281 7.20117 6.09792 7.20117 8.20607C7.20117 10.3143 8.90495 12.0293 10.9992 12.0293C13.0935 12.0293 14.7973 10.3143 14.7973 8.20607C14.7973 6.09792 13.0935 4.38281 10.9992 4.38281ZM10.9992 10.5101C9.74265 10.5101 8.72036 9.47652 8.72036 8.20607C8.72036 6.9357 9.74265 5.90207 10.9992 5.90207C12.2558 5.90207 13.2781 6.93563 13.2781 8.20607C13.2781 9.47652 12.2558 10.5101 10.9992 10.5101Z" fill="white"/>
</g>
<defs>
<clipPath id="clip0_5_176">
<rect width="22" height="22" fill="white"/>
</clipPath>
</defs>
</svg>
