<svg width="183" height="73" viewBox="0 0 183 73" fill="none" xmlns="http://www.w3.org/2000/svg">
<path d="M0 32.7109V43.6146H18.368V71.5553H48.9814V43.6146H66.6691V32.7109H0Z" fill="white"/>
<path fill-rule="evenodd" clip-rule="evenodd" d="M74.1523 71.5553V32.7109H129.937C133.792 32.9381 141.502 34.0739 141.502 44.2961C141.484 44.5138 141.468 44.7359 141.453 44.9613C141.294 47.2777 141.112 49.9434 137.518 51.8272C136.581 52.3181 135.524 52.5122 134.469 52.5877L126.535 53.1553V55.1998H136.059C137.874 55.1998 141.502 56.1538 141.502 59.9701V71.5553H112.929V62.696C112.929 62.5036 112.935 62.3172 112.941 62.1374C112.997 60.4071 113.033 59.2886 107.487 59.2886H103.405V71.5553H74.1523ZM103.405 50.4299V42.9336H109.446C110.83 42.9336 112.501 43.08 113.125 44.3152C113.41 44.8787 113.609 45.7173 113.609 47.0225C113.609 48.1278 113.466 48.8506 113.25 49.3306C112.735 50.4705 111.228 50.451 109.914 50.4339C109.758 50.4319 109.604 50.4299 109.456 50.4299H103.405Z" fill="white"/>
<rect x="153.067" y="32.7109" width="29.9331" height="39.5258" fill="#ED1B25"/>
<ellipse cx="168.034" cy="14.9926" rx="14.9665" ry="14.9926" fill="#ED1B25"/>
</svg>
