<svg width="27" height="28" viewBox="0 0 27 28" fill="none" xmlns="http://www.w3.org/2000/svg">
<g clip-path="url(#clip0_5_188)">
<path d="M19.3211 27.0682C14.6146 27.0682 9.58863 25.3388 5.65894 21.4092C1.7358 17.486 0 12.4634 0 7.74706C0 3.59048 3.36285 0.220703 7.52636 0.220703C7.84801 0.220703 8.13719 0.416501 8.25664 0.715126L11.6266 9.13993C11.7879 9.54327 11.5918 10.001 11.1885 10.1623L7.48661 11.643C7.74848 15.9018 11.167 19.3202 15.4251 19.5817L16.9059 15.8798C17.0669 15.4771 17.5244 15.2802 17.9283 15.4416L26.353 18.8115C26.6516 18.931 26.8475 19.2202 26.8475 19.5418C26.8475 23.6984 23.4846 27.0682 19.3211 27.0682ZM7.00289 1.81634C3.99052 2.07701 1.57309 4.60308 1.57309 7.74706C1.57309 12.4877 3.41917 16.9447 6.77133 20.2968C10.1234 23.6489 14.5804 25.4951 19.3211 25.4951C22.4641 25.4951 24.991 23.079 25.2519 20.0653L18.0743 17.1943L16.6814 20.6764C16.562 20.975 16.2728 21.1708 15.9512 21.1708C10.4071 21.1708 5.89737 16.661 5.89737 11.1178C5.89737 10.7962 6.09317 10.5061 6.39179 10.3867L9.87389 8.99384L7.00289 1.81634Z" fill="#E80C2A"/>
</g>
<defs>
<clipPath id="clip0_5_188">
<rect width="26.8475" height="26.8475" fill="white" transform="translate(0 0.220703)"/>
</clipPath>
</defs>
</svg>
