<svg width="23" height="26" viewBox="0 0 23 26" fill="none" xmlns="http://www.w3.org/2000/svg">
<path d="M20.4063 2.53175C19.8047 1.93769 17.37 0.0437827 11.9418 0.0183953C11.9418 0.0183953 5.54245 -0.392881 2.42569 2.67392C0.692053 4.53228 0.081016 7.25889 0.0147019 10.6354C-0.0516121 14.0119 -0.132137 20.3385 5.55666 22.0547H5.5614L5.55666 24.6747C5.55666 24.6747 5.51877 25.7359 6.17243 25.9491C6.95873 26.2132 7.42293 25.4058 8.17607 24.5376C8.58816 24.0603 9.15657 23.3596 9.58761 22.8265C13.4812 23.1768 16.4701 22.3746 16.8111 22.2578C17.5974 21.9836 22.0452 21.3743 22.7652 15.0478C23.5136 8.51811 22.4052 4.39519 20.4063 2.53175ZM21.0647 14.5705C20.4536 19.8511 16.849 20.1862 16.1859 20.4147C15.9017 20.5111 13.2728 21.2118 9.97128 20.9833C9.97128 20.9833 7.50819 24.1669 6.74084 24.9946C6.48979 25.2637 6.21507 25.2383 6.2198 24.7051C6.2198 24.3548 6.23875 20.3537 6.23875 20.3537C6.23401 20.3537 6.23401 20.3537 6.23875 20.3537C1.41677 18.9219 1.70097 13.5347 1.75308 10.7167C1.80518 7.89866 2.30254 5.5884 3.77092 4.03469C6.40927 1.47056 11.8423 1.85137 11.8423 1.85137C16.4322 1.87168 18.63 3.3543 19.1416 3.8519C20.8326 5.40561 21.6947 9.12233 21.0647 14.5705ZM14.4806 10.4679C14.4996 10.9045 13.8885 10.935 13.8696 10.4983C13.8175 9.38128 13.3296 8.83799 12.3254 8.77706C11.9181 8.75167 11.956 8.09668 12.3586 8.12206C13.6801 8.19823 14.4143 9.01062 14.4806 10.4679ZM15.4422 11.0416C15.4896 8.88877 14.2343 7.20304 11.8518 7.01517C11.4491 6.98471 11.4918 6.32971 11.8944 6.36018C14.6417 6.57343 16.1053 8.59935 16.0532 11.0569C16.0485 11.4935 15.4327 11.4732 15.4422 11.0416ZM17.6684 11.722C17.6732 12.1587 17.0574 12.1637 17.0574 11.7271C17.029 7.58893 14.457 5.33452 11.3355 5.30914C10.9328 5.30406 10.9328 4.65414 11.3355 4.65414C14.8264 4.67953 17.6353 7.26397 17.6684 11.722Z" fill="white"/>
<path d="M15.8226 15.1951L13.43 13.5987C13.1683 13.4239 12.8569 13.3647 12.5521 13.4295C12.2469 13.4955 11.9845 13.6806 11.8144 13.9506L11.7019 14.1281C10.6663 13.7766 9.52452 13.3275 8.84091 11.2948L9.12393 11.0421C9.60977 10.6082 9.66077 9.84918 9.23838 9.3493L7.36664 7.13744C7.22572 6.97068 6.97968 6.95348 6.81734 7.09785L5.64205 8.14719C4.61119 9.06777 5.09275 10.4294 5.2512 10.8769C5.25821 10.8969 5.26677 10.9161 5.27689 10.9349C5.31777 11.0101 6.29374 12.7993 7.87 14.4485C9.4525 16.1045 12.3096 17.6337 12.3971 17.6781C12.7234 17.8956 13.0905 18 13.4537 18C14.0914 18 14.7166 17.6789 15.0895 17.0902L15.9374 15.7489C16.0542 15.563 16.0028 15.3155 15.8226 15.1951ZM14.4363 16.6543C14.0855 17.2094 13.3607 17.367 12.7884 16.9878C12.76 16.9726 9.9216 15.4542 8.42553 13.8886C7.02717 12.4254 6.0987 10.7997 5.97218 10.573C5.66385 9.68482 5.71836 9.13895 6.15281 8.75105L7.03457 7.96404L8.65093 9.87397C8.79458 10.0435 8.77784 10.2915 8.61356 10.4382L8.13589 10.8645C8.01949 10.9685 7.97356 11.1329 8.0191 11.284C8.83351 14.0026 10.4172 14.5364 11.5734 14.9263L11.742 14.9835C11.9105 15.0419 12.095 14.9751 12.1916 14.8224L12.4676 14.3857C12.5244 14.2953 12.6116 14.2341 12.7129 14.2121C12.8145 14.1897 12.918 14.2105 13.006 14.2693L15.0724 15.6478L14.4363 16.6543Z" fill="white"/>
</svg>
