<svg width="54" height="54" viewBox="0 0 54 54" fill="none" xmlns="http://www.w3.org/2000/svg">
<path d="M36.4377 15.3789H16.5623C12.9437 15.3789 10 18.3321 10 21.9614V33.0406C10 36.6706 12.9437 39.6231 16.5623 39.6231H36.4377C40.0563 39.6231 43 36.67 43 33.0406V21.9614C43 18.3321 40.0563 15.3789 36.4377 15.3789ZM41.6531 33.0413C41.6531 35.9285 39.3134 38.2769 36.4377 38.2769H16.5623C13.6866 38.2769 11.3469 35.9278 11.3469 33.0413V21.9614C11.3469 19.0749 13.6866 16.7258 16.5623 16.7258H36.4377C39.3134 16.7258 41.6531 19.0749 41.6531 21.9614V33.0413Z" fill="white"/>
<path d="M32.4666 27.2585L23.1356 21.7933C22.9282 21.6721 22.6703 21.67 22.4608 21.7899C22.2514 21.9098 22.1221 22.1327 22.1221 22.3745V33.3042C22.1221 33.5453 22.2514 33.7689 22.4602 33.8888C22.5639 33.9481 22.6797 33.9777 22.7955 33.9777C22.9134 33.9777 23.0306 33.9467 23.1356 33.8854L32.4666 28.4216C32.6726 28.301 32.7999 28.0794 32.7999 27.8404C32.7999 27.6013 32.6733 27.379 32.4666 27.2585ZM23.469 32.129V23.549L30.7937 27.8397L23.469 32.129Z" fill="white"/>
</svg>
